<svg width="28" height="28" viewBox="0 0 28 28" fill="none" xmlns="http://www.w3.org/2000/svg">
<path d="M1.7501 6.78572C1.80767 6.78605 1.86475 6.77502 1.91805 6.75325C1.97136 6.73147 2.01984 6.69939 2.06072 6.65885L6.65885 2.06072C6.69964 2.01993 6.732 1.9715 6.75407 1.9182C6.77615 1.86491 6.78751 1.80778 6.78751 1.7501C6.78751 1.69241 6.77615 1.63528 6.75407 1.58199C6.732 1.52869 6.69964 1.48026 6.65885 1.43947C6.61805 1.39868 6.56963 1.36632 6.51633 1.34424C6.46303 1.32217 6.40591 1.31081 6.34822 1.31081C6.23171 1.31081 6.11998 1.35709 6.0376 1.43947L1.43947 6.0376C1.39846 6.07827 1.36592 6.12665 1.34371 6.17997C1.32149 6.23328 1.31006 6.29047 1.31006 6.34822C1.31006 6.40598 1.32149 6.46316 1.34371 6.51647C1.36592 6.56979 1.39846 6.61817 1.43947 6.65885C1.48035 6.69939 1.52883 6.73147 1.58214 6.75325C1.63544 6.77502 1.69252 6.78605 1.7501 6.78572ZM1.7501 11.7645C1.80767 11.7648 1.86475 11.7538 1.91805 11.732C1.97136 11.7102 2.01984 11.6781 2.06072 11.6376L11.6376 2.06072C11.6784 2.01993 11.7107 1.9715 11.7328 1.9182C11.7549 1.86491 11.7663 1.80778 11.7663 1.7501C11.7663 1.69241 11.7549 1.63528 11.7328 1.58199C11.7107 1.52869 11.6784 1.48026 11.6376 1.43947C11.5968 1.39868 11.5484 1.36632 11.4951 1.34424C11.4418 1.32217 11.3847 1.31081 11.327 1.31081C11.2693 1.31081 11.2122 1.32217 11.1589 1.34424C11.1056 1.36632 11.0571 1.39868 11.0163 1.43947L1.43947 11.0163C1.39846 11.057 1.36592 11.1054 1.34371 11.1587C1.32149 11.212 1.31006 11.2692 1.31006 11.327C1.31006 11.3847 1.32149 11.4419 1.34371 11.4952C1.36592 11.5485 1.39846 11.5969 1.43947 11.6376C1.48035 11.6781 1.52883 11.7102 1.58214 11.732C1.63544 11.7538 1.69252 11.7648 1.7501 11.7645ZM1.7501 16.7345C1.86393 16.7399 1.97538 16.7006 2.06072 16.6251L16.6251 2.06072C16.7075 1.97834 16.7538 1.8666 16.7538 1.7501C16.7538 1.63359 16.7075 1.52185 16.6251 1.43947C16.5427 1.35709 16.431 1.31081 16.3145 1.31081C16.198 1.31081 16.0862 1.35709 16.0038 1.43947L1.43947 15.9863C1.39846 16.027 1.36592 16.0754 1.34371 16.1287C1.32149 16.182 1.31006 16.2392 1.31006 16.297C1.31006 16.3547 1.32149 16.4119 1.34371 16.4652C1.36592 16.5185 1.39846 16.5669 1.43947 16.6076C1.48035 16.6481 1.52883 16.6802 1.58214 16.702C1.63544 16.7238 1.69252 16.7348 1.7501 16.7345ZM1.7501 21.7132C1.80767 21.7136 1.86475 21.7025 1.91805 21.6807C1.97136 21.659 2.01984 21.6269 2.06072 21.5863L21.5863 2.06072C21.6271 2.01993 21.6595 1.9715 21.6816 1.9182C21.7036 1.86491 21.715 1.80778 21.715 1.7501C21.715 1.69241 21.7036 1.63528 21.6816 1.58199C21.6595 1.52869 21.6271 1.48026 21.5863 1.43947C21.5456 1.39868 21.4971 1.36632 21.4438 1.34424C21.3905 1.32217 21.3334 1.31081 21.2757 1.31081C21.218 1.31081 21.1609 1.32217 21.1076 1.34424C21.0543 1.36632 21.0059 1.39868 20.9651 1.43947L1.43947 20.9651C1.39846 21.0058 1.36592 21.0542 1.34371 21.1075C1.32149 21.1608 1.31006 21.218 1.31006 21.2757C1.31006 21.3335 1.32149 21.3907 1.34371 21.444C1.36592 21.4973 1.39846 21.5457 1.43947 21.5863C1.48035 21.6269 1.52883 21.659 1.58214 21.6807C1.63544 21.7025 1.69252 21.7136 1.7501 21.7132ZM26.5607 1.43947C26.52 1.39846 26.4717 1.36592 26.4183 1.34371C26.365 1.32149 26.3078 1.31006 26.2501 1.31006C26.1923 1.31006 26.1352 1.32149 26.0818 1.34371C26.0285 1.36592 25.9801 1.39846 25.9395 1.43947L1.43947 25.9395C1.39846 25.9801 1.36592 26.0285 1.34371 26.0818C1.32149 26.1352 1.31006 26.1923 1.31006 26.2501C1.31006 26.3078 1.32149 26.365 1.34371 26.4183C1.36592 26.4717 1.39846 26.52 1.43947 26.5607C1.48014 26.6017 1.52853 26.6343 1.58184 26.6565C1.63516 26.6787 1.69234 26.6901 1.7501 26.6901C1.80785 26.6901 1.86503 26.6787 1.91835 26.6565C1.97166 26.6343 2.02005 26.6017 2.06072 26.5607L26.5607 2.06072C26.6017 2.02005 26.6343 1.97166 26.6565 1.91835C26.6787 1.86503 26.6901 1.80785 26.6901 1.7501C26.6901 1.69234 26.6787 1.63516 26.6565 1.58184C26.6343 1.52853 26.6017 1.48014 26.5607 1.43947ZM25.9395 6.41385L6.41385 25.9395C6.37284 25.9801 6.34029 26.0285 6.31808 26.0818C6.29587 26.1352 6.28443 26.1923 6.28443 26.2501C6.28443 26.3078 6.29587 26.365 6.31808 26.4183C6.34029 26.4717 6.37284 26.52 6.41385 26.5607C6.45452 26.6017 6.5029 26.6343 6.55622 26.6565C6.60953 26.6787 6.66672 26.6901 6.72447 26.6901C6.78223 26.6901 6.83941 26.6787 6.89272 26.6565C6.94604 26.6343 6.99442 26.6017 7.0351 26.5607L26.5607 7.0351C26.6431 6.95271 26.6894 6.84098 26.6894 6.72447C26.6894 6.60796 26.6431 6.49623 26.5607 6.41385C26.4783 6.33146 26.3666 6.28518 26.2501 6.28518C26.1336 6.28518 26.0219 6.33146 25.9395 6.41385ZM25.9395 11.3751L11.3751 25.9395C11.3341 25.9801 11.3015 26.0285 11.2793 26.0818C11.2571 26.1352 11.2457 26.1923 11.2457 26.2501C11.2457 26.3078 11.2571 26.365 11.2793 26.4183C11.3015 26.4717 11.3341 26.52 11.3751 26.5607C11.4158 26.6017 11.4642 26.6343 11.5175 26.6565C11.5708 26.6787 11.628 26.6901 11.6857 26.6901C11.7435 26.6901 11.8007 26.6787 11.854 26.6565C11.9073 26.6343 11.9557 26.6017 11.9963 26.5607L26.5607 12.0138C26.6454 11.9315 26.6939 11.8188 26.6956 11.7007C26.6972 11.5825 26.6519 11.4685 26.5695 11.3838C26.4871 11.2991 26.3744 11.2506 26.2563 11.249C26.1381 11.2474 26.0242 11.2927 25.9395 11.3751ZM25.9395 16.3626L16.3626 25.9395C16.3216 25.9801 16.289 26.0285 16.2668 26.0818C16.2446 26.1352 16.2332 26.1923 16.2332 26.2501C16.2332 26.3078 16.2446 26.365 16.2668 26.4183C16.289 26.4717 16.3216 26.52 16.3626 26.5607C16.4033 26.6017 16.4517 26.6343 16.505 26.6565C16.5583 26.6787 16.6155 26.6901 16.6732 26.6901C16.731 26.6901 16.7882 26.6787 16.8415 26.6565C16.8948 26.6343 16.9432 26.6017 16.9838 26.5607L26.5607 16.9838C26.6431 16.9015 26.6894 16.7897 26.6894 16.6732C26.6894 16.5567 26.6431 16.445 26.5607 16.3626C26.4783 16.2802 26.3666 16.2339 26.2501 16.2339C26.1336 16.2339 26.0219 16.2802 25.9395 16.3626ZM25.9395 21.3413L21.3413 25.9395C21.3003 25.9801 21.2678 26.0285 21.2456 26.0818C21.2234 26.1352 21.2119 26.1923 21.2119 26.2501C21.2119 26.3078 21.2234 26.365 21.2456 26.4183C21.2678 26.4717 21.3003 26.52 21.3413 26.5607C21.382 26.6017 21.4304 26.6343 21.4837 26.6565C21.537 26.6787 21.5942 26.6901 21.652 26.6901C21.7097 26.6901 21.7669 26.6787 21.8202 26.6565C21.8735 26.6343 21.9219 26.6017 21.9626 26.5607L26.5607 21.9626C26.6431 21.8802 26.6894 21.7685 26.6894 21.652C26.6894 21.5355 26.6431 21.4237 26.5607 21.3413C26.4783 21.259 26.3666 21.2127 26.2501 21.2127C26.1336 21.2127 26.0219 21.259 25.9395 21.3413Z" fill="#2E2A2A"/>
</svg>
