<svg width="28" height="28" viewBox="0 0 28 28" fill="none" xmlns="http://www.w3.org/2000/svg">
<path d="M1.7501 6.7856C1.80767 6.78593 1.86475 6.7749 1.91805 6.75312C1.97136 6.73135 2.01984 6.69927 2.06072 6.65872L6.65885 2.0606C6.69964 2.01981 6.732 1.97138 6.75407 1.91808C6.77615 1.86479 6.78751 1.80766 6.78751 1.74997C6.78751 1.69228 6.77615 1.63516 6.75407 1.58186C6.732 1.52857 6.69964 1.48014 6.65885 1.43935C6.61805 1.39856 6.56963 1.3662 6.51633 1.34412C6.46303 1.32205 6.40591 1.31068 6.34822 1.31068C6.23171 1.31068 6.11998 1.35697 6.0376 1.43935L1.43947 6.03747C1.39846 6.07814 1.36592 6.12653 1.34371 6.17985C1.32149 6.23316 1.31006 6.29034 1.31006 6.3481C1.31006 6.40585 1.32149 6.46304 1.34371 6.51635C1.36592 6.56966 1.39846 6.61805 1.43947 6.65872C1.48035 6.69927 1.52883 6.73135 1.58214 6.75312C1.63544 6.7749 1.69252 6.78593 1.7501 6.7856ZM1.7501 11.7643C1.80767 11.7647 1.86475 11.7536 1.91805 11.7319C1.97136 11.7101 2.01984 11.678 2.06072 11.6375L11.6376 2.0606C11.6784 2.01981 11.7107 1.97138 11.7328 1.91808C11.7549 1.86479 11.7663 1.80766 11.7663 1.74997C11.7663 1.69228 11.7549 1.63516 11.7328 1.58186C11.7107 1.52857 11.6784 1.48014 11.6376 1.43935C11.5968 1.39856 11.5484 1.3662 11.4951 1.34412C11.4418 1.32205 11.3847 1.31068 11.327 1.31068C11.2693 1.31068 11.2122 1.32205 11.1589 1.34412C11.1056 1.3662 11.0571 1.39856 11.0163 1.43935L1.43947 11.0162C1.39846 11.0569 1.36592 11.1053 1.34371 11.1586C1.32149 11.2119 1.31006 11.2691 1.31006 11.3268C1.31006 11.3846 1.32149 11.4418 1.34371 11.4951C1.36592 11.5484 1.39846 11.5968 1.43947 11.6375C1.48035 11.678 1.52883 11.7101 1.58214 11.7319C1.63544 11.7536 1.69252 11.7647 1.7501 11.7643ZM1.7501 16.7343C1.86393 16.7397 1.97538 16.7005 2.06072 16.625L16.6251 2.0606C16.7075 1.97822 16.7538 1.86648 16.7538 1.74997C16.7538 1.63347 16.7075 1.52173 16.6251 1.43935C16.5427 1.35697 16.431 1.31068 16.3145 1.31068C16.198 1.31068 16.0862 1.35697 16.0038 1.43935L1.43947 15.9862C1.39846 16.0269 1.36592 16.0753 1.34371 16.1286C1.32149 16.1819 1.31006 16.2391 1.31006 16.2968C1.31006 16.3546 1.32149 16.4118 1.34371 16.4651C1.36592 16.5184 1.39846 16.5668 1.43947 16.6075C1.48035 16.648 1.52883 16.6801 1.58214 16.7019C1.63544 16.7236 1.69252 16.7347 1.7501 16.7343ZM1.7501 21.7131C1.80767 21.7134 1.86475 21.7024 1.91805 21.6806C1.97136 21.6589 2.01984 21.6268 2.06072 21.5862L21.5863 2.0606C21.6271 2.01981 21.6595 1.97138 21.6816 1.91808C21.7036 1.86479 21.715 1.80766 21.715 1.74997C21.715 1.69228 21.7036 1.63516 21.6816 1.58186C21.6595 1.52857 21.6271 1.48014 21.5863 1.43935C21.5456 1.39856 21.4971 1.3662 21.4438 1.34412C21.3905 1.32205 21.3334 1.31068 21.2757 1.31068C21.218 1.31068 21.1609 1.32205 21.1076 1.34412C21.0543 1.3662 21.0059 1.39856 20.9651 1.43935L1.43947 20.965C1.39846 21.0056 1.36592 21.054 1.34371 21.1073C1.32149 21.1607 1.31006 21.2178 1.31006 21.2756C1.31006 21.3334 1.32149 21.3905 1.34371 21.4438C1.36592 21.4972 1.39846 21.5456 1.43947 21.5862C1.48035 21.6268 1.52883 21.6589 1.58214 21.6806C1.63544 21.7024 1.69252 21.7134 1.7501 21.7131ZM26.5607 1.43935C26.52 1.39834 26.4717 1.36579 26.4183 1.34358C26.365 1.32137 26.3078 1.30994 26.2501 1.30994C26.1923 1.30994 26.1352 1.32137 26.0818 1.34358C26.0285 1.36579 25.9801 1.39834 25.9395 1.43935L1.43947 25.9393C1.39846 25.98 1.36592 26.0284 1.34371 26.0817C1.32149 26.135 1.31006 26.1922 1.31006 26.25C1.31006 26.3077 1.32149 26.3649 1.34371 26.4182C1.36592 26.4715 1.39846 26.5199 1.43947 26.5606C1.48014 26.6016 1.52853 26.6342 1.58184 26.6564C1.63516 26.6786 1.69234 26.69 1.7501 26.69C1.80785 26.69 1.86503 26.6786 1.91835 26.6564C1.97166 26.6342 2.02005 26.6016 2.06072 26.5606L26.5607 2.0606C26.6017 2.01993 26.6343 1.97154 26.6565 1.91823C26.6787 1.86491 26.6901 1.80773 26.6901 1.74997C26.6901 1.69222 26.6787 1.63503 26.6565 1.58172C26.6343 1.52841 26.6017 1.48002 26.5607 1.43935ZM25.9395 6.41372L6.41385 25.9393C6.37284 25.98 6.34029 26.0284 6.31808 26.0817C6.29587 26.135 6.28443 26.1922 6.28443 26.25C6.28443 26.3077 6.29587 26.3649 6.31808 26.4182C6.34029 26.4715 6.37284 26.5199 6.41385 26.5606C6.45452 26.6016 6.5029 26.6342 6.55622 26.6564C6.60953 26.6786 6.66672 26.69 6.72447 26.69C6.78223 26.69 6.83941 26.6786 6.89272 26.6564C6.94604 26.6342 6.99442 26.6016 7.0351 26.5606L26.5607 7.03497C26.6431 6.95259 26.6894 6.84086 26.6894 6.72435C26.6894 6.60784 26.6431 6.49611 26.5607 6.41372C26.4783 6.33134 26.3666 6.28506 26.2501 6.28506C26.1336 6.28506 26.0219 6.33134 25.9395 6.41372ZM25.9395 11.375L11.3751 25.9393C11.3341 25.98 11.3015 26.0284 11.2793 26.0817C11.2571 26.135 11.2457 26.1922 11.2457 26.25C11.2457 26.3077 11.2571 26.3649 11.2793 26.4182C11.3015 26.4715 11.3341 26.5199 11.3751 26.5606C11.4158 26.6016 11.4642 26.6342 11.5175 26.6564C11.5708 26.6786 11.628 26.69 11.6857 26.69C11.7435 26.69 11.8007 26.6786 11.854 26.6564C11.9073 26.6342 11.9557 26.6016 11.9963 26.5606L26.5607 12.0137C26.6454 11.9313 26.6939 11.8187 26.6956 11.7005C26.6972 11.5824 26.6519 11.4684 26.5695 11.3837C26.4871 11.299 26.3744 11.2505 26.2563 11.2489C26.1381 11.2472 26.0242 11.2926 25.9395 11.375ZM25.9395 16.3625L16.3626 25.9393C16.3216 25.98 16.289 26.0284 16.2668 26.0817C16.2446 26.135 16.2332 26.1922 16.2332 26.25C16.2332 26.3077 16.2446 26.3649 16.2668 26.4182C16.289 26.4715 16.3216 26.5199 16.3626 26.5606C16.4033 26.6016 16.4517 26.6342 16.505 26.6564C16.5583 26.6786 16.6155 26.69 16.6732 26.69C16.731 26.69 16.7882 26.6786 16.8415 26.6564C16.8948 26.6342 16.9432 26.6016 16.9838 26.5606L26.5607 16.9837C26.6431 16.9013 26.6894 16.7896 26.6894 16.6731C26.6894 16.5566 26.6431 16.4449 26.5607 16.3625C26.4783 16.2801 26.3666 16.2338 26.2501 16.2338C26.1336 16.2338 26.0219 16.2801 25.9395 16.3625ZM25.9395 21.3412L21.3413 25.9393C21.3003 25.98 21.2678 26.0284 21.2456 26.0817C21.2234 26.135 21.2119 26.1922 21.2119 26.25C21.2119 26.3077 21.2234 26.3649 21.2456 26.4182C21.2678 26.4715 21.3003 26.5199 21.3413 26.5606C21.382 26.6016 21.4304 26.6342 21.4837 26.6564C21.537 26.6786 21.5942 26.69 21.652 26.69C21.7097 26.69 21.7669 26.6786 21.8202 26.6564C21.8735 26.6342 21.9219 26.6016 21.9626 26.5606L26.5607 21.9625C26.6431 21.8801 26.6894 21.7684 26.6894 21.6518C26.6894 21.5353 26.6431 21.4236 26.5607 21.3412C26.4783 21.2588 26.3666 21.2126 26.2501 21.2126C26.1336 21.2126 26.0219 21.2588 25.9395 21.3412Z" fill="#EFE8DB"/>
</svg>
